<?xml version="1.0" encoding="utf-8" ?><svg xmlns="http://www.w3.org/2000/svg" xmlns:xlink="http://www.w3.org/1999/xlink" width="1280" height="896" viewBox="0 0 1280 896"><path fill="white" d="M0 0L1280 0L1280 896L0 896L0 0Z"/><path d="M389.808 357.011C391.208 356.903 392.653 356.81 394.057 356.831C404.924 356.921 415.314 361.305 422.96 369.026C446.303 392.743 436.713 430.119 430.84 458.323C428.862 467.823 427.446 485.495 427.433 495.099C440.54 502.389 456.573 508.469 471.421 510.836C475.395 497.715 477.631 488.711 484.935 476.283C502.447 446.484 538.292 440.185 547.758 479.194C551.339 493.952 546.312 513.571 538.256 526.399C532.234 535.987 524.479 541.132 513.2 543.331C506.635 563.461 506.896 588.158 512.632 608.468C516.952 623.762 526.286 630.923 520.715 648.268C516.611 661.046 509.26 671.415 497.177 677.875C487.356 683.126 474.294 684.172 463.718 680.655C453.775 677.243 445.631 669.962 441.133 660.463C427.378 632.043 452.728 572.614 462.922 543.933C458.112 542.765 432.004 534.91 429.48 536.429L429.36 538.655C432.094 562.759 435.819 586.983 433.401 611.315C430.178 643.747 406.322 686.327 367.895 679.95C357.095 678.169 347.474 672.099 341.22 663.118C329.364 645.957 330.513 621.127 339.774 603.111C346.276 590.463 354.956 579.152 361.648 566.575C367.796 555.18 372.112 542.887 374.437 530.15C347.291 542.946 367.518 558.607 345.211 577.051C337.055 583.795 326.454 586.379 315.992 585.223C304.287 583.865 293.594 577.934 286.248 568.723C278.645 559.17 275.647 546.555 277.108 534.531C282.102 493.444 331.21 473.601 367.98 478.141C366.055 473.107 364.064 465.669 361.827 460.989C354.162 445.608 348.164 432.994 346.214 415.773C342.789 385.531 357.991 360.454 389.808 357.011Z"/><path d="M963.8 382.511C973.394 381.47 981.786 382.765 989.605 388.755C997.042 394.521 1001.86 403.023 1002.99 412.364C1005.25 430.369 994.549 442.946 982.905 455.035C974.461 463.801 967.384 476.125 966.407 488.429C965.076 505.189 972.149 520.527 976.911 536.164C981.524 551.312 986.729 566.591 988.861 582.329C993.406 617.051 985.743 649.981 964.261 677.907C944.112 704.1 913.399 722.581 880.55 727.129C859.906 729.767 839.151 726.623 822.263 713.585C801.171 697.302 794.6 665.696 811.544 644.117C819.447 634.053 830.402 629.821 842.951 628.541C869.277 628.441 868.148 645.346 888.982 644.067C898.347 643.492 908.098 634.756 913.719 627.38C931.765 603.701 936.433 565.044 932.503 536.329C926.725 551.181 925.086 565.707 913.769 579.081C904.609 589.923 890.809 598.575 876.287 599.57C833.771 601.398 824.041 570.682 819.603 535.23C813.638 487.582 834.316 425.941 888.547 418.729C901.677 416.983 914.114 422.401 924.212 431.185C924.786 407.49 940.911 388.086 963.8 382.511Z"/><path fill="white" d="M900.941 466.675C916.813 465.794 908.165 495.813 905.629 504.427C903.55 511.49 901.103 520.498 892.72 521.062C875.93 511.325 882.019 480.197 895.28 470.004C896.996 468.684 899.012 467.642 900.941 466.675Z"/><path d="M509.399 168.957C571.483 161.646 632.126 221.212 626.474 283.129C624.641 303.201 617.654 330.279 605.256 346.389C587.047 370.05 558.992 382.645 530.03 386.591C538.107 406.917 540.706 426.485 530.052 446.746C504.98 440.763 497.271 456.571 480.439 465.622C470.24 464.565 463.089 461.821 457.962 452.27C440.993 420.654 459.906 382.415 470.687 351.676C474.162 341.933 480.188 331.189 481.369 320.798C483.085 298.391 471.243 288.403 477.891 264.844C486.302 235.036 515.127 223.352 531.28 255.211C542.01 279.775 535.62 321.255 529.515 346.515C546.913 344.899 556.137 340.037 567.85 326.52C591.645 299.059 594.423 256.273 565.315 231.357C541.326 210.822 497.317 223.455 479.616 247.055C470.883 258.698 463.668 275.47 467.449 290.46C469.159 297.254 472.176 303.628 472.957 310.631C473.952 319.909 471.205 329.2 465.322 336.445C457.954 345.602 446.365 351.487 434.733 352.689C422.48 354.025 410.21 350.337 400.726 342.468C389.379 333.136 381.93 317.7 381.25 303.125C377.951 232.463 442.606 174.927 509.399 168.957Z"/><path d="M668.99 326.742C679.293 315.051 693.215 299.409 710.24 299.694C728.732 300.005 739.853 313.488 743.24 330.718C747.474 352.256 735.76 371.281 737.657 391.618C738.667 402.439 752.066 418.414 750.358 431.712C750.055 451.578 726.753 464.161 708.791 463.624C697.384 463.282 687.651 458.255 679.671 449.538C657.436 425.356 679.217 393.646 690.054 369.663C691.881 365.618 696.686 357.913 692.869 354.344C683.983 352.734 673.789 369.187 671.211 376.006C664.831 392.879 666.975 412.112 661.336 429.114C653.719 452.084 633.853 471.708 608.197 462.254C600.387 459.395 594.099 452.803 590.544 445.215C577.422 411.816 599.683 378.348 613.106 349.06C620.012 333.968 629.744 308.87 632.425 293.057C634.407 281.318 634.55 269.342 632.849 257.559C630.959 244.332 623.137 233.958 628.941 219.254C632.02 211.455 637.846 205.656 645.506 202.285C653.727 198.639 663.077 198.491 671.409 201.876C679.382 205.023 685.95 212.975 689.105 220.732C700.049 247.647 687.973 274.991 677.743 299.484C674.063 308.326 670.513 317.223 667.095 326.169L668.99 326.742Z"/><path fill="#DDDDDF" d="M667.095 326.169L668.99 326.742C668.598 327.157 666.354 329.988 665.742 329.561L665.752 329.507L665.643 329.408C665.761 328.226 666.386 327.119 667.095 326.169Z"/><path d="M550.596 465.093C559.511 461.061 569.287 460.374 576.34 468.223C587.016 480.102 585.354 497.695 584.73 512.498L584.616 515.388L585.244 515.426C585.864 514.322 586.599 513.086 587.133 511.959C596.051 496.625 611.76 476.979 630.062 473.122C645.05 469.963 659.092 477.904 665.364 491.736C676.968 517.329 664.076 544.127 669.152 570.249C669.79 573.527 672.229 577.813 674.293 580.43C681.207 588.61 687.277 595.841 689.402 606.669C693.739 628.76 682.4 652.519 658.579 656.329C646.014 658.461 633.122 655.392 622.866 647.829C578.569 614.93 636.18 546.418 619.468 534.562C615.881 534.501 612.973 538.129 610.814 540.696C596.501 557.714 600.611 581.96 597.301 602.183C596.21 608.583 594.157 614.781 591.211 620.567C585.889 631.245 577.576 639.513 566.031 643.297C546.951 649.55 527.562 639.917 521.883 620.433C515.548 598.697 523.944 576.869 531.275 556.601C533.634 550.076 535.829 543.319 538.436 536.885C539.438 534.437 543.313 529.999 544.75 526.978C554.694 506.072 558.052 487.371 550.596 465.093Z"/><path d="M699.913 465.673C725.17 463.972 733.246 483.415 738.299 504.609C743.969 490.406 749.998 475.005 766.296 470.415C774.82 468.014 785.672 469.652 793.244 474.154C803.818 480.309 811.102 494.42 811.785 506.465C813.266 529.945 811.212 560.43 825.427 580.766C835.352 594.964 844.142 603.8 834.313 622.78C832.701 625.892 829.538 625.312 826.425 626.101C816.48 628.618 808.861 637.102 803.571 645.449C770.403 647.054 756.388 623.332 758.939 592.811C760.905 575.312 770.209 556.746 771.398 538.76C771.618 535.43 770.936 529.432 766.77 529.283C752.642 536.737 747.697 587.935 744.076 603.146C743.009 607.737 741.419 612.191 739.338 616.42C732.929 629.384 722.482 639.599 708.633 644.185C703.953 645.734 693.2 648.141 688.687 645.857C687.257 643.162 694.012 632.425 695.288 627.747C696.665 622.699 696.843 617.231 696.646 612.028C695.704 587.119 679.974 584.344 677.711 572.925C675.748 563.021 681.033 547.8 681.739 537.066C682.475 525.878 680.116 515.423 677.582 504.627C675.438 495.493 675.587 486.069 680.753 477.889C685.205 470.84 691.996 467.439 699.913 465.673Z"/><path d="M784.695 277.577C792.301 276.921 799.932 278.537 806.618 282.222C841.069 301.412 809.449 348.609 814.825 375.533C818.916 391.369 832.987 396.526 837.017 413.803C842.461 437.147 824.946 456.318 803.089 462.274C784.827 466.294 764.72 459.554 753.542 444.332C760.521 421.799 752.344 412.975 744.931 394.075C743.82 385.325 750.163 373.396 750.884 364.813C753.405 334.787 742.707 284.4 784.695 277.577Z"/><path d="M782.862 192.484C804.081 188.373 824.62 202.225 828.752 223.434C832.884 244.643 819.047 265.189 797.836 269.34C776.596 273.496 756.012 259.641 751.874 238.403C747.737 217.166 761.615 196.6 782.862 192.484Z"/></svg>