<svg xmlns="http://www.w3.org/2000/svg" viewBox="0 0 400 300" role="img" aria-label="Apollo marble bust">
	<rect width="400" height="300" fill="#151210"/>
	<g stroke="#FF3B1F" stroke-width="1.5" fill="none">
		<path d="M14 14h22v8h-14v8h22M386 14h-22v8h14v8h-22M14 286h22v-8h-14v-8h22M386 286h-22v-8h14v-8h-22"/>
	</g>
	<g stroke="#3A352C" stroke-width="1" fill="none">
		<path d="M40 26h12v6h-6v6h12M64 26h12v6h-6v6h12M88 26h12v6h-6v6h12M112 26h12v6h-6v6h12M136 26h12v6h-6v6h12M160 26h12v6h-6v6h12M184 26h12v6h-6v6h12M208 26h12v6h-6v6h12M232 26h12v6h-6v6h12M256 26h12v6h-6v6h12M280 26h12v6h-6v6h12M304 26h12v6h-6v6h12M328 26h12v6h-6v6h12"/>
	</g>
	<g stroke="#FF3B1F" stroke-width="1" fill="none">
		<path d="M200 52V36M168 60l-8-14M232 60l8-14M146 82l-14-8M254 82l14-8"/>
	</g>
	<g stroke="#ECE8DF" stroke-width="1.5" fill="none" stroke-linecap="round">
		<ellipse cx="200" cy="120" rx="34" ry="43"/>
		<path d="M196 120q-6 8 2 12M184 108q6-4 12 0M208 108q6-4 12 0M188 140h24"/>
		<path d="M166 104q4-26 34-26q30 0 34 26"/>
		<path d="M170 92q10-6 16-2M214 90q10-6 16-2M176 82q12-6 24-4"/>
		<path d="M186 163h28v25h-28z"/>
		<path d="M120 244q16-40 52-50q14-4 28-4q14 0 28 4q36 10 52 50"/>
		<path d="M154 240q10-24 30-34M246 240q-10-24-30-34M200 190v54"/>
		<path d="M162 206q18 12 38 12q20 0 38-12"/>
	</g>
	<g stroke="#FF3B1F" stroke-width="2" fill="none" stroke-linejoin="round">
		<path d="M96 140q-14 30 0 60M120 140q14 30 0 60M96 140h24M96 200h24M102 140v60M114 140v60M108 140v60"/>
	</g>
	<g stroke="#ECE8DF" stroke-width="1.5" fill="none">
		<path d="M140 244h120v16h-120zM120 260h160v14h-160z"/>
	</g>
	<text x="16" y="288" font-family="ui-monospace, monospace" font-size="10" letter-spacing="2" fill="#8A8578">FRAME 04 / APOLLO — DELPHI GOLD</text>
</svg>
